# xmcd
#
# Track frame offsets: 
#        150
#        15864
#        41537
#        58909
#        81188
#        118367
#        132833
#        156683
#        176515
#        186636
#        207144
#
# Disc length: 2961 seconds
#
# Revision: 0
# Processed by: cddbd v1.5.2PL0 Copyright (c) Steve Scherf et al.
# Submitted via: ExactAudioCopy v0.99pb3
#
DISCID=9d0b8f0b
DTITLE=Joe Bonamassa - Sloe Gin 
DYEAR=2007
DGENRE=Blues- Rock
TTITLE0=Ball Peen Hammer
TTITLE1=One of These Days
TTITLE2=Seagull
TTITLE3=Dirt In My Pocket
TTITLE4=Sloe Gin
TTITLE5=Another Kind of Love
TTITLE6=Around the Bend
TTITLE7=Black Night
TTITLE8=Jelly Roll
TTITLE9=Richmond
TTITLE10=India
EXTD=
EXTT0=
EXTT1=
EXTT2=
EXTT3=
EXTT4=
EXTT5=
EXTT6=
EXTT7=
EXTT8=
EXTT9=
EXTT10=
PLAYORDER=
